<svg xmlns="http://www.w3.org/2000/svg" width="275" height="275" viewBox="0 0 275 275">
  <defs>
    <style>

      .cls-2 {
        fill: #a2bea8;
      }

      .cls-2, .cls-3, .cls-5, .cls-8, .cls-9 {
        fill-rule: evenodd;
      }

      .cls-3, .cls-4, .cls-5, .cls-6, .cls-7, .cls-8 {
        fill: #f6f6f6;
        stroke: #050804;
      }

      .cls-3 {
        stroke-width: 3.2px;
      }

      .cls-4 {
        stroke-width: 3.9px;
      }

      .cls-5 {
        stroke-width: 2.3px;
      }

      .cls-6, .cls-8 {
        stroke-width: 2.8px;
      }

      .cls-7 {
        stroke-width: 2.51px;
      }
    </style>
  </defs>
  <path id="Эллипс_1" data-name="Эллипс 1" class="cls-2" d="M86.469,64.094c6.5-4.463,22.845-15.219,37-21,56.65-23.137,121.948.033,125,39,0.869,11.1-12.562,22.844-25.985,29.406-16.829,8.228-25.051,19.66-28.015,29.594-2.738,9.175,1.848,19.253,2.015,25.406,1.2,44.075-39.071,81.594-86.015,81.594s-84-36.056-84-83A91.517,91.517,0,0,1,33.484,129.5a120.844,120.844,0,0,1,10-20c3.107-4.916,3.291-6.452,13-18A155.416,155.416,0,0,1,86.469,64.094Z"/>
  <path id="Прямоугольник_8" data-name="Прямоугольник 8" class="cls-3" d="M155,192h14l14.816,51.6h-14Z"/>
  <path id="Прямоугольник_8-2" data-name="Прямоугольник 8" class="cls-3" d="M122,192H108L93.184,243.6h14Z"/>
  <rect id="Прямоугольник_2" data-name="Прямоугольник 2" class="cls-4" x="85.563" y="71.5" width="103.875" height="98.625"/>
  <path id="Прямоугольник_3" data-name="Прямоугольник 3" class="cls-5" d="M123,58.868h29.818V67H123V58.868Z"/>
  <rect id="Прямоугольник_4" data-name="Прямоугольник 4" class="cls-6" x="131.5" y="28.219" width="13" height="26"/>
  <rect id="Прямоугольник_6" data-name="Прямоугольник 6" class="cls-7" x="134" y="192" width="9" height="35"/>
  <path id="Прямоугольник_5" data-name="Прямоугольник 5" class="cls-8" d="M74.172,177.772H203.828v10.456H74.172V177.772Z"/>
  <path id="П" class="cls-9" d="M154.135,143.731a24.2,24.2,0,0,1-.3,5.141,2.174,2.174,0,0,1-1.423,1.355,15.7,15.7,0,0,1-4.572.421h-1.82v3.919h24.868v-3.919h-1.4q-4.526,0-5.505-.958t-0.98-5.4V99.9q0-3.972,1.073-5.234t4.572-1.262h2.24V89.482H104.493V93.4h2.613q3.266,0,4.386,1.215t1.119,5.281v44.909q0,4.113-1.189,4.977t-5.343.865h-1.586v3.919h25.1v-3.919h-1.726q-4.479,0-5.482-.981t-1-5.375V94.474h32.752v49.257Z"/>
</svg>
