<svg width="276" height="293" viewBox="0 0 276 293" fill="none" xmlns="http://www.w3.org/2000/svg">
<path d="M245.5 99.1814C274 118.681 269.5 149.181 259.5 170.181C249.5 191.181 243.394 208.441 224 220.181C204.606 231.922 148.316 224.882 125.649 224.458C102.982 224.035 80.8992 217.199 61.9571 204.743C43.0151 192.287 27.9891 174.72 18.6192 154.076C9.24933 133.432 9.01347 108.098 11.4997 90.6816C13.9859 73.2654 20.9096 50.6808 29.5001 40.1812C38.0907 29.6816 52.0327 13.1196 78 21.1814C103.967 29.2432 92.8444 69.433 132 95.1815C171.155 120.93 217 79.6814 245.5 99.1814Z" fill="#C99ED8"/>
<circle cx="185" cy="217.682" r="75" fill="#D9D9D9"/>
<circle opacity="0.55" cx="25" cy="48.6816" r="24.5" fill="white" stroke="black"/>
</svg>
