<svg width="18" height="18" viewBox="0 0 18 18" fill="none" xmlns="http://www.w3.org/2000/svg">
<mask id="path-1-inside-1_24_36" fill="white">
<path d="M16.3618 17.0575C16.7835 17.4792 17.4343 16.8283 17.0126 16.4158L13.5751 12.9692C14.7809 11.635 15.4475 9.90001 15.4451 8.10166C15.4451 4.07749 12.1726 0.804993 8.14847 0.804993C4.12431 0.804993 0.851807 4.07749 0.851807 8.10166C0.851807 12.1258 4.12431 15.3983 8.14847 15.3983C9.96347 15.3983 11.641 14.7292 12.9243 13.62L16.3618 17.0575ZM1.76756 8.10166C1.76756 4.58166 4.63672 1.72166 8.14756 1.72166C11.6676 1.72166 14.5276 4.58166 14.5276 8.10166C14.5276 11.6217 11.6676 14.4817 8.14756 14.4817C4.63672 14.4817 1.76756 11.6217 1.76756 8.10166Z"/>
</mask>
<path d="M16.3618 17.0575C16.7835 17.4792 17.4343 16.8283 17.0126 16.4158L13.5751 12.9692C14.7809 11.635 15.4475 9.90001 15.4451 8.10166C15.4451 4.07749 12.1726 0.804993 8.14847 0.804993C4.12431 0.804993 0.851807 4.07749 0.851807 8.10166C0.851807 12.1258 4.12431 15.3983 8.14847 15.3983C9.96347 15.3983 11.641 14.7292 12.9243 13.62L16.3618 17.0575ZM1.76756 8.10166C1.76756 4.58166 4.63672 1.72166 8.14756 1.72166C11.6676 1.72166 14.5276 4.58166 14.5276 8.10166C14.5276 11.6217 11.6676 14.4817 8.14756 14.4817C4.63672 14.4817 1.76756 11.6217 1.76756 8.10166Z" fill="white"/>
<path d="M16.3618 17.0575L15.6547 17.7646L16.3618 17.0575ZM17.0126 16.4158L16.3045 17.122L16.3133 17.1307L17.0126 16.4158ZM13.5751 12.9692L12.8332 12.2986L12.1966 13.0031L12.8671 13.6753L13.5751 12.9692ZM15.4451 8.10166H14.4451L14.4451 8.10296L15.4451 8.10166ZM12.9243 13.62L13.6314 12.9129L12.9739 12.2554L12.2704 12.8634L12.9243 13.62ZM15.6547 17.7646C15.9592 18.0691 16.3607 18.2201 16.7723 18.1906C17.1568 18.163 17.4813 17.9843 17.7081 17.7591C17.9345 17.5342 18.1168 17.2099 18.1454 16.8231C18.1761 16.4077 18.0214 16.0038 17.7119 15.701L16.3133 17.1307C16.2147 17.0341 16.1368 16.8663 16.1509 16.6757C16.1628 16.5138 16.2351 16.4032 16.2989 16.3399C16.3629 16.2763 16.472 16.207 16.6291 16.1957C16.8132 16.1825 16.9752 16.2567 17.0689 16.3504L15.6547 17.7646ZM17.7207 15.7097L14.2832 12.263L12.8671 13.6753L16.3046 17.122L17.7207 15.7097ZM14.317 13.6397C15.6893 12.1213 16.4478 10.1469 16.4451 8.10036L14.4451 8.10296C14.4472 9.6531 13.8726 11.1486 12.8332 12.2986L14.317 13.6397ZM16.4451 8.10166C16.4451 3.52521 12.7249 -0.195007 8.14847 -0.195007V1.80499C11.6204 1.80499 14.4451 4.62978 14.4451 8.10166H16.4451ZM8.14847 -0.195007C3.57202 -0.195007 -0.148193 3.52521 -0.148193 8.10166H1.85181C1.85181 4.62978 4.67659 1.80499 8.14847 1.80499V-0.195007ZM-0.148193 8.10166C-0.148193 12.6781 3.57202 16.3983 8.14847 16.3983V14.3983C4.67659 14.3983 1.85181 11.5735 1.85181 8.10166H-0.148193ZM8.14847 16.3983C10.2123 16.3983 12.1199 15.637 13.5782 14.3766L12.2704 12.8634C11.1621 13.8213 9.71469 14.3983 8.14847 14.3983V16.3983ZM12.2172 14.3271L15.6547 17.7646L17.0689 16.3504L13.6314 12.9129L12.2172 14.3271ZM2.76756 8.10166C2.76756 5.13488 5.18807 2.72166 8.14756 2.72166V0.721659C4.08537 0.721659 0.767557 4.02844 0.767557 8.10166H2.76756ZM8.14756 2.72166C11.1153 2.72166 13.5276 5.13394 13.5276 8.10166H15.5276C15.5276 4.02937 12.2198 0.721659 8.14756 0.721659V2.72166ZM13.5276 8.10166C13.5276 11.0694 11.1153 13.4817 8.14756 13.4817V15.4817C12.2198 15.4817 15.5276 12.1739 15.5276 8.10166H13.5276ZM8.14756 13.4817C5.18807 13.4817 2.76756 11.0684 2.76756 8.10166H0.767557C0.767557 12.1749 4.08537 15.4817 8.14756 15.4817V13.4817Z" fill="white" mask="url(#path-1-inside-1_24_36)"/>
</svg>
