<svg width="368" height="160" viewBox="0 0 368 160" fill="none" xmlns="http://www.w3.org/2000/svg">
<path d="M13 40C13 40 19.6883 106.395 46.8505 135.672C74.0126 164.949 126.397 161.017 144.911 154.493C163.425 147.968 174.375 135.672 202.458 110.578C230.541 85.4834 259.444 106.693 282.563 110.578C305.683 114.462 323.507 111.102 334.586 90.1885C343.482 73.3932 340.53 40 340.53 40H13Z" fill="#C99ED8"/>
<circle cx="35" cy="125" r="34.5" fill="#D9D9D9" stroke="#757171"/>
<mask id="mask0_254_463" style="mask-type:alpha" maskUnits="userSpaceOnUse" x="288" y="40" width="80" height="40">
<path d="M368 40C368 45.2529 366.965 50.4543 364.955 55.3073C362.945 60.1604 359.999 64.5699 356.284 68.2843C352.57 71.9986 348.16 74.945 343.307 76.9552C338.454 78.9654 333.253 80 328 80C322.747 80 317.546 78.9654 312.693 76.9552C307.84 74.945 303.43 71.9986 299.716 68.2843C296.001 64.5699 293.055 60.1604 291.045 55.3073C289.035 50.4543 288 45.2529 288 40L328 40H368Z" fill="#D9D9D9"/>
</mask>
<g mask="url(#mask0_254_463)">
<rect x="295" y="5" width="68" height="68" rx="34" stroke="#757171" stroke-width="2"/>
</g>
</svg>
