<svg width="40" height="40" viewBox="0 0 40 40" fill="none" xmlns="http://www.w3.org/2000/svg">
<path d="M40 20C40 31.0457 31.0457 40 20 40C8.9543 40 0 31.0457 0 20C0 8.9543 8.9543 0 20 0C31.0457 0 40 8.9543 40 20Z" fill="#D9D9D9"/>
<path fill-rule="evenodd" clip-rule="evenodd" d="M40 20C40 25.8452 37.4925 31.1047 33.4945 34.7616C33.3331 31.2668 29.6273 26.25 19.5 26.25C10.1853 26.25 6.30292 30.4941 5.61433 33.8944C2.13842 30.2963 0 25.3979 0 20C0 8.9543 8.9543 0 20 0C31.0457 0 40 8.9543 40 20ZM27.375 16.625C27.375 20.9742 23.8492 24.5 19.5 24.5C15.1508 24.5 11.625 20.9742 11.625 16.625C11.625 12.2758 15.1508 8.75 19.5 8.75C23.8492 8.75 27.375 12.2758 27.375 16.625Z" fill="#757171"/>
</svg>
